<mxfile host="65bd71144e">
    <diagram id="K2UQQnsQFdKgTGh9kfJ0" name="Página-1">
        <mxGraphModel dx="1440" dy="599" grid="1" gridSize="10" guides="1" tooltips="1" connect="1" arrows="1" fold="1" page="1" pageScale="1" pageWidth="827" pageHeight="1169" math="0" shadow="0">
            <root>
                <mxCell id="0"/>
                <mxCell id="1" parent="0"/>
                <mxCell id="2" value="Id" style="ellipse;whiteSpace=wrap;html=1;aspect=fixed;" vertex="1" parent="1">
                    <mxGeometry x="290" y="160" width="50" height="50" as="geometry"/>
                </mxCell>
                <mxCell id="52" style="edgeStyle=none;html=1;exitX=0.25;exitY=1;exitDx=0;exitDy=0;entryX=0.5;entryY=0;entryDx=0;entryDy=0;" edge="1" parent="1" source="3" target="27">
                    <mxGeometry relative="1" as="geometry"/>
                </mxCell>
                <mxCell id="59" style="edgeStyle=none;html=1;exitX=0.75;exitY=1;exitDx=0;exitDy=0;entryX=0;entryY=0;entryDx=0;entryDy=0;" edge="1" parent="1" source="3" target="37">
                    <mxGeometry relative="1" as="geometry"/>
                </mxCell>
                <mxCell id="66" style="edgeStyle=none;html=1;exitX=0.25;exitY=1;exitDx=0;exitDy=0;entryX=1;entryY=0.5;entryDx=0;entryDy=0;" edge="1" parent="1" source="3" target="60">
                    <mxGeometry relative="1" as="geometry"/>
                </mxCell>
                <mxCell id="68" style="edgeStyle=none;html=1;exitX=1;exitY=1;exitDx=0;exitDy=0;entryX=0.5;entryY=0;entryDx=0;entryDy=0;" edge="1" parent="1" source="3" target="35">
                    <mxGeometry relative="1" as="geometry">
                        <mxPoint x="760" y="560" as="targetPoint"/>
                        <Array as="points">
                            <mxPoint x="580" y="360"/>
                            <mxPoint x="760" y="360"/>
                            <mxPoint x="760" y="530"/>
                        </Array>
                    </mxGeometry>
                </mxCell>
                <mxCell id="3" value="Producto" style="rounded=0;whiteSpace=wrap;html=1;" vertex="1" parent="1">
                    <mxGeometry x="370" y="170" width="120" height="60" as="geometry"/>
                </mxCell>
                <mxCell id="4" value="Nombre" style="ellipse;whiteSpace=wrap;html=1;aspect=fixed;" vertex="1" parent="1">
                    <mxGeometry x="300" y="110" width="50" height="50" as="geometry"/>
                </mxCell>
                <mxCell id="5" value="Familia" style="ellipse;whiteSpace=wrap;html=1;aspect=fixed;" vertex="1" parent="1">
                    <mxGeometry x="340" y="80" width="50" height="50" as="geometry"/>
                </mxCell>
                <mxCell id="6" value="Categoría" style="ellipse;whiteSpace=wrap;html=1;aspect=fixed;" vertex="1" parent="1">
                    <mxGeometry x="390" y="70" width="60" height="60" as="geometry"/>
                </mxCell>
                <mxCell id="7" value="Contenido&lt;br&gt;Neto" style="ellipse;whiteSpace=wrap;html=1;aspect=fixed;" vertex="1" parent="1">
                    <mxGeometry x="450" y="70" width="60" height="60" as="geometry"/>
                </mxCell>
                <mxCell id="8" value="Codigo&lt;br&gt;Barras" style="ellipse;whiteSpace=wrap;html=1;aspect=fixed;" vertex="1" parent="1">
                    <mxGeometry x="500" y="110" width="50" height="50" as="geometry"/>
                </mxCell>
                <mxCell id="10" value="Precio" style="ellipse;whiteSpace=wrap;html=1;aspect=fixed;" vertex="1" parent="1">
                    <mxGeometry x="530" y="150" width="50" height="50" as="geometry"/>
                </mxCell>
                <mxCell id="12" value="Fecha&lt;br&gt;Caducidad" style="ellipse;whiteSpace=wrap;html=1;aspect=fixed;" vertex="1" parent="1">
                    <mxGeometry x="520" y="200" width="70" height="70" as="geometry"/>
                </mxCell>
                <mxCell id="13" value="Piezas&lt;br&gt;Fisico" style="ellipse;whiteSpace=wrap;html=1;aspect=fixed;" vertex="1" parent="1">
                    <mxGeometry x="290" y="210" width="50" height="50" as="geometry"/>
                </mxCell>
                <mxCell id="14" value="Piezas&lt;br&gt;Sistema" style="ellipse;whiteSpace=wrap;html=1;aspect=fixed;" vertex="1" parent="1">
                    <mxGeometry x="280" y="50" width="60" height="60" as="geometry"/>
                </mxCell>
                <mxCell id="15" value="Fecha&lt;br&gt;Registro" style="ellipse;whiteSpace=wrap;html=1;aspect=fixed;" vertex="1" parent="1">
                    <mxGeometry x="240" y="120" width="60" height="60" as="geometry"/>
                </mxCell>
                <mxCell id="16" value="Fecha&lt;br&gt;Modificacion" style="ellipse;whiteSpace=wrap;html=1;aspect=fixed;" vertex="1" parent="1">
                    <mxGeometry x="549" y="70" width="80" height="80" as="geometry"/>
                </mxCell>
                <mxCell id="17" value="Estado&lt;br&gt;Activo&lt;br&gt;Inactivo" style="ellipse;whiteSpace=wrap;html=1;aspect=fixed;" vertex="1" parent="1">
                    <mxGeometry x="500" y="40" width="60" height="60" as="geometry"/>
                </mxCell>
                <mxCell id="49" style="edgeStyle=none;html=1;exitX=0.5;exitY=0;exitDx=0;exitDy=0;" edge="1" parent="1" source="18">
                    <mxGeometry relative="1" as="geometry">
                        <mxPoint x="430" y="550" as="targetPoint"/>
                    </mxGeometry>
                </mxCell>
                <mxCell id="18" value="Persona" style="rounded=0;whiteSpace=wrap;html=1;" vertex="1" parent="1">
                    <mxGeometry x="354" y="775" width="120" height="60" as="geometry"/>
                </mxCell>
                <mxCell id="19" value="Id" style="ellipse;whiteSpace=wrap;html=1;aspect=fixed;" vertex="1" parent="1">
                    <mxGeometry x="279" y="765" width="50" height="50" as="geometry"/>
                </mxCell>
                <mxCell id="20" value="Nombre&lt;br&gt;Completo" style="ellipse;whiteSpace=wrap;html=1;aspect=fixed;" vertex="1" parent="1">
                    <mxGeometry x="274" y="700" width="65" height="65" as="geometry"/>
                </mxCell>
                <mxCell id="21" value="Contraseña" style="ellipse;whiteSpace=wrap;html=1;aspect=fixed;" vertex="1" parent="1">
                    <mxGeometry x="269" y="815" width="70" height="70" as="geometry"/>
                </mxCell>
                <mxCell id="22" value="Nombre&lt;br&gt;Usuario" style="ellipse;whiteSpace=wrap;html=1;aspect=fixed;" vertex="1" parent="1">
                    <mxGeometry x="314" y="875" width="70" height="70" as="geometry"/>
                </mxCell>
                <mxCell id="23" value="Estado&lt;br&gt;Activo&lt;br&gt;Inactivo" style="ellipse;whiteSpace=wrap;html=1;aspect=fixed;" vertex="1" parent="1">
                    <mxGeometry x="384" y="875" width="70" height="70" as="geometry"/>
                </mxCell>
                <mxCell id="24" value="Rol&lt;br&gt;Usuario&lt;br&gt;Admin" style="ellipse;whiteSpace=wrap;html=1;aspect=fixed;" vertex="1" parent="1">
                    <mxGeometry x="454" y="855" width="70" height="70" as="geometry"/>
                </mxCell>
                <mxCell id="25" value="Sexo&lt;br&gt;H, M, NB" style="ellipse;whiteSpace=wrap;html=1;aspect=fixed;" vertex="1" parent="1">
                    <mxGeometry x="499" y="805" width="60" height="60" as="geometry"/>
                </mxCell>
                <mxCell id="27" value="Inventario Realizado" style="rounded=0;whiteSpace=wrap;html=1;" vertex="1" parent="1">
                    <mxGeometry x="354" y="490" width="120" height="60" as="geometry"/>
                </mxCell>
                <mxCell id="28" value="Hora" style="ellipse;whiteSpace=wrap;html=1;aspect=fixed;" vertex="1" parent="1">
                    <mxGeometry x="279" y="495" width="50" height="50" as="geometry"/>
                </mxCell>
                <mxCell id="29" value="Fecha" style="ellipse;whiteSpace=wrap;html=1;aspect=fixed;" vertex="1" parent="1">
                    <mxGeometry x="424" y="380" width="50" height="50" as="geometry"/>
                </mxCell>
                <mxCell id="30" value="FK Id Usuario" style="ellipse;whiteSpace=wrap;html=1;aspect=fixed;" vertex="1" parent="1">
                    <mxGeometry x="300" y="540" width="60" height="60" as="geometry"/>
                </mxCell>
                <mxCell id="31" value="Total&lt;br&gt;Productos" style="ellipse;whiteSpace=wrap;html=1;aspect=fixed;" vertex="1" parent="1">
                    <mxGeometry x="350" y="570" width="70" height="70" as="geometry"/>
                </mxCell>
                <mxCell id="34" value="Resultado&lt;br&gt;Bien/Mal" style="ellipse;whiteSpace=wrap;html=1;aspect=fixed;" vertex="1" parent="1">
                    <mxGeometry x="284" y="420" width="70" height="70" as="geometry"/>
                </mxCell>
                <mxCell id="50" style="edgeStyle=none;html=1;exitX=0;exitY=0;exitDx=0;exitDy=0;entryX=1;entryY=0.75;entryDx=0;entryDy=0;" edge="1" parent="1" source="35" target="27">
                    <mxGeometry relative="1" as="geometry"/>
                </mxCell>
                <mxCell id="35" value="&lt;span&gt;Productos&lt;/span&gt;&lt;br&gt;&lt;span&gt;Faltantes&lt;/span&gt;" style="rhombus;whiteSpace=wrap;html=1;" vertex="1" parent="1">
                    <mxGeometry x="600" y="585" width="80" height="80" as="geometry"/>
                </mxCell>
                <mxCell id="51" style="edgeStyle=none;html=1;exitX=0;exitY=0.5;exitDx=0;exitDy=0;entryX=1;entryY=0.25;entryDx=0;entryDy=0;" edge="1" parent="1" source="37" target="27">
                    <mxGeometry relative="1" as="geometry"/>
                </mxCell>
                <mxCell id="37" value="Productos&lt;br&gt;Sobrantes" style="rhombus;whiteSpace=wrap;html=1;" vertex="1" parent="1">
                    <mxGeometry x="600" y="430" width="80" height="80" as="geometry"/>
                </mxCell>
                <mxCell id="38" value="Id" style="ellipse;whiteSpace=wrap;html=1;aspect=fixed;" vertex="1" parent="1">
                    <mxGeometry x="354" y="430" width="50" height="50" as="geometry"/>
                </mxCell>
                <mxCell id="39" value="Num Productos&lt;br&gt;Sobrantes" style="ellipse;whiteSpace=wrap;html=1;aspect=fixed;" vertex="1" parent="1">
                    <mxGeometry x="454" y="420" width="70" height="70" as="geometry"/>
                </mxCell>
                <mxCell id="40" value="Id" style="ellipse;whiteSpace=wrap;html=1;aspect=fixed;" vertex="1" parent="1">
                    <mxGeometry x="615" y="370" width="50" height="50" as="geometry"/>
                </mxCell>
                <mxCell id="41" value="Piezas Producto" style="ellipse;whiteSpace=wrap;html=1;aspect=fixed;" vertex="1" parent="1">
                    <mxGeometry x="665" y="390" width="60" height="60" as="geometry"/>
                </mxCell>
                <mxCell id="42" value="Id" style="ellipse;whiteSpace=wrap;html=1;aspect=fixed;" vertex="1" parent="1">
                    <mxGeometry x="615" y="675" width="50" height="50" as="geometry"/>
                </mxCell>
                <mxCell id="43" value="Fk Id Producto" style="ellipse;whiteSpace=wrap;html=1;aspect=fixed;" vertex="1" parent="1">
                    <mxGeometry x="665" y="640" width="70" height="70" as="geometry"/>
                </mxCell>
                <mxCell id="45" value="Piezas Producto" style="ellipse;whiteSpace=wrap;html=1;aspect=fixed;" vertex="1" parent="1">
                    <mxGeometry x="680" y="565" width="65" height="65" as="geometry"/>
                </mxCell>
                <mxCell id="46" value="Fk Id Producto" style="ellipse;whiteSpace=wrap;html=1;aspect=fixed;" vertex="1" parent="1">
                    <mxGeometry x="675" y="460" width="70" height="70" as="geometry"/>
                </mxCell>
                <mxCell id="47" value="Num Productos&lt;br&gt;Faltantes" style="ellipse;whiteSpace=wrap;html=1;aspect=fixed;" vertex="1" parent="1">
                    <mxGeometry x="440" y="570" width="70" height="70" as="geometry"/>
                </mxCell>
                <mxCell id="53" value="Notificacion/Alarma" style="rounded=0;whiteSpace=wrap;html=1;" vertex="1" parent="1">
                    <mxGeometry x="70" y="590" width="120" height="60" as="geometry"/>
                </mxCell>
                <mxCell id="54" value="Fk Id Producto" style="ellipse;whiteSpace=wrap;html=1;aspect=fixed;" vertex="1" parent="1">
                    <mxGeometry x="60" y="510" width="70" height="70" as="geometry"/>
                </mxCell>
                <mxCell id="55" value="Fecha" style="ellipse;whiteSpace=wrap;html=1;aspect=fixed;" vertex="1" parent="1">
                    <mxGeometry x="10" y="560" width="50" height="50" as="geometry"/>
                </mxCell>
                <mxCell id="56" value="Id" style="ellipse;whiteSpace=wrap;html=1;aspect=fixed;" vertex="1" parent="1">
                    <mxGeometry x="10" y="615" width="50" height="50" as="geometry"/>
                </mxCell>
                <mxCell id="58" value="Estado&lt;br&gt;Activo&lt;br&gt;Inactivo" style="ellipse;whiteSpace=wrap;html=1;aspect=fixed;" vertex="1" parent="1">
                    <mxGeometry x="40" y="660" width="60" height="60" as="geometry"/>
                </mxCell>
                <mxCell id="67" style="edgeStyle=none;html=1;exitX=0.25;exitY=1;exitDx=0;exitDy=0;entryX=0.75;entryY=0;entryDx=0;entryDy=0;" edge="1" parent="1" source="3" target="53">
                    <mxGeometry relative="1" as="geometry"/>
                </mxCell>
                <mxCell id="60" value="Proximos a Caducar" style="rounded=0;whiteSpace=wrap;html=1;" vertex="1" parent="1">
                    <mxGeometry x="70" y="340" width="120" height="60" as="geometry"/>
                </mxCell>
                <mxCell id="61" value="Id" style="ellipse;whiteSpace=wrap;html=1;aspect=fixed;" vertex="1" parent="1">
                    <mxGeometry x="10" y="330" width="50" height="50" as="geometry"/>
                </mxCell>
                <mxCell id="62" value="Tipo&lt;br&gt;Normal&lt;br&gt;Urgente" style="ellipse;whiteSpace=wrap;html=1;aspect=fixed;" vertex="1" parent="1">
                    <mxGeometry x="110" y="660" width="60" height="60" as="geometry"/>
                </mxCell>
                <mxCell id="63" value="Fk Id Producto" style="ellipse;whiteSpace=wrap;html=1;aspect=fixed;" vertex="1" parent="1">
                    <mxGeometry x="40" y="260" width="70" height="70" as="geometry"/>
                </mxCell>
                <mxCell id="64" value="Piezas Producto" style="ellipse;whiteSpace=wrap;html=1;aspect=fixed;" vertex="1" parent="1">
                    <mxGeometry x="10" y="380" width="65" height="65" as="geometry"/>
                </mxCell>
            </root>
        </mxGraphModel>
    </diagram>
</mxfile>